# xmcd
# 
# Track frame offsets:
#     150
#     12055
#     33152
#     50872
#     78042
#     91917
#     105887
#     123192
#     139277
# 
# Disc length: 2021
# 
# Revision: 1
# Processed by: cddbd v1.5.2PL0 Copyright (c) Steve Scherf et al.
# Submitted via: fre:ac v1.1beta2
# 
DISCID=6007e309
DTITLE=Phil Upchurch and Tennyson Stephens - Upchurch/Tennyson
DYEAR=1975
DGENRE=Fusion
TTITLE0=You Got Style
TTITLE1=Ave Maria
TTITLE2=In  Common
TTITLE3=Tell Me Something Good
TTITLE4=Don't I Know You?
TTITLE5=South Side Morning
TTITLE6=Evil
TTITLE7=Black Gold
TTITLE8=I Wanted It Too
EXTD=YEAR: 1974
EXTT0=
EXTT1=
EXTT2=
EXTT3=
EXTT4=
EXTT5=
EXTT6=
EXTT7=
EXTT8=
PLAYORDER=
